<?xml version="1.0" encoding="UTF-8"?>
<svg id="_Слой_2" data-name="Слой_2" xmlns="http://www.w3.org/2000/svg" viewBox="0 0 531.95 568.24">
  <defs>
    <style>
      .cls-1 {
        fill: #fff;
      }

      .cls-2 {
        fill: #fefefe;
      }
    </style>
  </defs>
  <g id="_Слой_2-2" data-name="Слой_2">
    <g>
      <path class="cls-1" d="M182.98,351.75c-1.3,1.32-2.61,1.78-4.66,1.31-8-1.86-16.05-3.47-24.11-5.05-9.28-1.82-18.59-3.44-27.86-5.28-7.72-1.53-15.39-3.29-23.1-4.88-5.51-1.14-11.05-2.09-16.55-3.24-7.58-1.59-15.2-2.92-22.7-4.89-5.09-1.33-10.32-2.13-15.47-3.27-7.12-1.58-14.21-3.27-21.31-4.88-7.87-1.79-15.73-3.57-23.61-5.31-1.2-.27-2.43-.36-3.6-1.72,3.75-.35,7.15-.02,10.55.35,9.73,1.07,19.52.73,29.28,1.38,17.79,1.18,35.63,1.66,53.41,3.11,7.46.61,14.99.48,22.45,1.17,12.43,1.14,24.92,1.4,37.34,2.72,6.64.71,13.31,1.54,20.04,1.36,1.67-.04,2.69-.58,3.64-1.9,5.01-7.01,10.08-13.97,16.41-19.91,3.81-3.58,7.78-6.93,12.09-9.88.56-.38,1.36-.68,1.24-1.44-.17-1.1-1.17-.76-1.93-.82-10.04-.76-19.98-2.35-29.95-3.76-8.96-1.26-17.96-2.18-26.93-3.36-6.16-.81-12.28-1.87-18.43-2.75-5.7-.82-11.42-1.54-17.12-2.35-6.27-.89-12.52-1.86-18.79-2.75-7.94-1.13-15.89-2.16-23.81-3.36-6.54-1-13.05-2.19-19.55-3.81,5.02-.23,10.04-.68,15.06-.66,33.22.18,66.43.48,99.65.65,1.96.01,4.74,1.3,5.65-.32.65-1.15-2.56-1.51-3.89-2.64-11.41-9.78-17.34-22.34-20.13-36.87-1.82-9.46-4.56-18.75-6.81-28.14-1.83-7.64-3.44-15.34-5.32-22.97-2.22-9.04-4.68-18.02-6.93-27.05-1.82-7.29-3.5-14.62-5.21-21.94-1.92-8.21-3.81-16.43-5.73-24.64-2.19-9.39-4.19-18.84-6.64-28.17-2.54-9.67-4.96-19.38-6.73-29.19-1.96-10.87.38-21.2,7.26-30.05C118.83,5.46,130.12,0,144.44,0c21.05,0,42.06,1.18,63.1,1.5,18.16.28,36.33,1.47,54.51,2.02,23.03.71,39.26,17.1,44.93,35.21,3.25,10.38,4.96,21.23,7.46,31.85,2.19,9.29,4.76,18.5,6.73,27.84,2.36,11.21,6.07,22.18,5.64,33.92-.36,9.76-5.35,16.53-12.66,22.06-1.86,1.41-3.97,2.69-6.17,3.43-3.06,1.03-3.15,2.72-2.42,5.43,3.06,11.37,5.81,22.83,8.91,34.19,2.39,8.76,4.27,17.65,6.92,26.35.6,1.96,1.48,1.84,2.85,1.84,8.42-.01,16.84,0,25.26,0,44.37,0,88.74-.02,133.12,0,11.7,0,21.75,4.29,30.25,12.24,6.89,6.45,12.69,13.72,17.13,22.15,4.82,9.16-2.25,23.9-14.62,24.56-10.4.56-20.76,1.93-31.15,2.76-9.27.75-18.52,1.75-27.8,2.4-9.38.66-18.73,1.78-28.1,2.64-5.65.52-11.31.91-16.96,1.38-10.51.88-21.01,1.84-31.52,2.67-11.25.88-22.42,2.06-33.63-1.32-6.76-2.03-13.99-2.49-21.01-3.66-.24-.47-.71-.6-1.03-.3-.44.41.09.67.36.94,9.82,7.19,18.37,15.66,25.47,25.56,9.57,13.34,16.59,27.92,21.62,43.55,5.57,17.28,7.62,35.06,7.8,53.05.11,10.98-1.01,21.93-2.61,32.85-2.8,19.23-8.03,37.66-16.38,55.21-7.48,15.73-17.67,29.5-30.85,40.79-10.38,8.89-22.23,15.5-35.33,19.88-11.95,3.99-24.15,5.83-36.64,5.04-14.47-.92-28-5.35-40.44-12.79-23.09-13.81-39.15-33.82-50.31-57.98-5.27-11.41-8.97-23.36-11.38-35.73-1.4-7.22-2.72-14.43-3.09-21.8-.15-2.95-1.49-4.88-4.5-6.03-15.89-6.05-31.72-12.25-47.54-18.47-17.8-7-35.58-14.08-53.36-21.14-.15-.06-.23-.3-.48-.64,5.2-.37,10.09.88,14.97,1.84,7.38,1.44,14.71,3.15,22.05,4.83,8.19,1.88,16.36,3.84,24.53,5.78,7.41,1.76,14.84,3.49,22.24,5.3,10.33,2.54,20.64,5.14,30.96,7.72,2.51.63,5.01,1.27,7.51,1.9-.88,20.07,2.39,39.51,9.29,58.3,6.89,18.79,16.95,35.6,32.68,48.44,18.74,15.29,39.73,22.24,63.88,16.12,17.03-4.32,30.99-13.71,42.34-26.93,7.97-9.29,14.26-19.6,18.93-31.05,2.72-6.67,5.32-13.32,7.29-20.23,2.81-9.82,4.42-19.84,5.38-30.01,1.29-13.76,1.17-27.46-1.01-41.09-1.01-6.31-2.66-12.51-4.04-18.75-.96-4.36-1.98-8.7-3.62-12.86-8.83-22.39-20.81-42.24-42.11-55.29-8.59-5.26-17.38-9.17-27.34-10.81-18.16-2.98-34.91.4-50.29,10.46-15.28,9.99-26.53,23.49-34.5,39.82M231.94,136.81c21.45.38,44.07.8,66.7,1.16,5.18.08,9.62-4.88,8.82-9.79-.36-2.21-1.04-4.37-1.56-6.56-1.85-7.76-3.68-15.53-5.55-23.29-2.19-9.05-4.41-18.09-6.62-27.13-1.86-7.63-4.26-15.17-5.49-22.9-2.03-12.75-12.72-21.78-24.84-22.52-10.07-.62-20.19-1.18-30.31-1.25-12.39-.09-24.75-1.04-37.14-1.32-17.72-.4-35.41-1.7-53.14-1.81-4.26-.03-7.07,1.94-8.86,5.59-1.97,4.03-1.13,8.07-.14,12.22,2.33,9.72,4.35,19.52,6.61,29.26,2.15,9.28,4.47,18.52,6.68,27.79,2.68,11.25,5.26,22.52,8,33.75.99,4.07,3.52,5.93,7.79,5.93,22.63-.02,45.24,1.46,69.04.87ZM160.81,159.37c2.78,11.37,5.5,22.58,8.26,33.78,2.55,10.35,5.04,20.71,7.74,31.01,4.48,17.12,15.38,28.44,33.87,29.06,12.27.41,24.55.53,36.82,1.04,30.55,1.28,61.1,2.64,91.68,3.1.91.01,1.75.21,2.63.5,6.6,2.16,12.32,6.02,18.34,9.29,4.01,2.18,7.73,5.15,12.56,5.39,7.97.4,15.86-.82,23.78-1.36,9.84-.67,19.63-2.16,29.48-2.6,10.56-.47,21.03-1.85,31.57-2.47,4.4-.26,8.84-.42,13.25-.87,10.26-1.04,20.54-1.87,30.8-2.87,1.96-.19,4.85,1.04,5.64-.75.72-1.65-1.86-3.38-3.16-4.8-6.74-7.35-14.45-12.58-25.15-12.53-52.78.26-105.56.39-158.34.33-9.07,0-18.18-.48-27.25-1-27.81-1.59-55.67-1.8-83.5-2.92-1.98-.08-3.84-.49-5.57-1.15-3.64-1.38-4.15-5.83-1.02-8.13,2.01-1.47,4.31-2.55,6.82-2.62,25.8-.73,51.6-1.43,77.4-2.06,6.66-.16,6.66-.02,5.86-6.45-.08-.67-.06-1.37-.23-2.02-4.7-18.24-9.41-36.47-14.13-54.71-.61-2.37-1.62-3.65-4.6-3.59-10.91.25-21.85.36-32.76.04-26.04-.77-52.09-.89-78.14-.84-.78,0-1.57.1-2.67.17Z"/>
      <path class="cls-1" d="M464.11,498.11c-8.54-2.65-17.33-4.33-26.01-6.44-9.7-2.36-19.34-4.98-29.11-7-8.34-1.73-16.49-4.43-25.02-5.22-1.47-.14-1.95-.85-2.01-2.17-.18-3.87.31-7.66,1.32-11.4,2.22-8.23,4.11-16.54,5.93-24.88,3.19-14.57,3.16-29.28,2.91-44.01-.17-10.43-2.04-20.64-4.72-30.72-1.21-4.55-2.27-9.16-3.16-13.78-.54-2.79,1.63-1.55,2.56-1.2,6.2,2.29,12.42,4.54,18.48,7.16,12.83,5.55,25.63,11.13,38.32,17,7.18,3.32,11.74,8.88,15.6,15.4,12.54,21.17,25.14,42.31,37.71,63.46.45.77.7,1.69,2.05,1.89,4.4-15.87,5.28-31.92,3.51-48.28-2.08-19.17-7.97-36.92-18.37-53.16-9.81-15.31-23.03-26.88-38.95-35.5-2.47-1.34-5.12-2.43-7.22-4.38-2.3-2.13-3.91-4.74-2.68-7.85,1.16-2.94,4.03-3.77,6.99-3.79,7.81-.04,15.08,2.58,22.09,5.46,28.57,11.72,47.02,33.13,58.16,61.5,8.22,20.93,10.59,42.75,8.98,64.86-1.82,24.93-11.12,47.28-26.79,66.86-13.22,16.53-29.98,28.18-49.78,35.36-7.59,2.75-15.53,4.28-23.58,5.47-9.43,1.39-18.82,1.14-28.22.8-6.38-.23-12.68-1.81-18.92-3.31-6.08-1.46-12.1-3.18-18.16-4.76-4.53-1.17-4.82-1.87-2.42-6,1.64-2.82,3.24-5.66,4.87-8.48,2.54-4.38,4.1-4.8,9.11-4,13.55,2.18,27.17,4.51,40.92,3.25,16.96-1.55,32.24-7.38,44.28-20.07.54-.57,1.22-1.02,1.33-2.06ZM485.75,474.27c-1.54-2.37-2.83-4.3-4.08-6.26-12.93-20.38-25.5-40.99-37.32-62.01-4.5-8-11.18-11.9-18.94-15.1-.55-.23-1.1-.36-1.58.07-.58.51-.04,1.01.09,1.52.87,3.52,1.44,7.09,1.58,10.7.63,16.58-.52,32.94-5.92,48.81-1.24,3.63-.39,5.35,2.63,5.99,8.44,1.78,16.74,4.08,25.06,6.3,12.59,3.36,25.22,6.55,38.49,9.98Z"/>
      <path class="cls-1" d="M224.42,435.68c3.24.54,3.72,3.16,4.25,5.39,4.15,17.55,12.04,32.94,25.63,45.08,4.99,4.46,10.46,8.3,16.18,11.78.56.34,1.28.52,1.24,1.75-11.16,1.38-21.81.06-31.71-5.67-9.71-5.62-16.66-13.84-22.21-24.49-.74,3.88.92,6.3,1.85,8.73,5.83,15.21,15.68,26.4,31.78,31.25,14.22,4.28,26.67.21,37.43-8.88,13.24-11.2,20.47-26.2,24.9-42.77,4.48-16.76,5.48-33.82,3.82-50.93-1.68-17.28-6.33-33.84-16.62-48.21-4.43-6.19-9.92-11.45-18.41-10.86-5.04.35-9.56,2.7-13.64,5.5-14.36,9.85-25.97,22.07-32.36,38.63-1.54,3.98-2.89,8.02-3.62,12.22-.43,2.52-1.5,3.2-3.97,2.5-9.49-2.69-19.02-5.22-28.53-7.86-13.06-3.63-26.1-7.33-39.16-10.94-11.56-3.2-23.14-6.28-34.7-9.47-8.97-2.48-17.92-5.05-26.88-7.6-13.79-3.92-27.58-7.83-41.36-11.78-5.82-1.67-11.62-3.39-17.4-5.16-1.23-.37-2.74-.66-2.63-2.88,6.19,1.68,12.54,1.65,18.75,2.85,5.76,1.11,11.66,1.55,17.47,2.41,8.04,1.18,16.07,2.5,24.1,3.73,7.37,1.13,14.75,2.18,22.11,3.36,7.02,1.12,14.01,2.39,21.02,3.56,5.34.89,10.7,1.6,16.02,2.59,5.53,1.02,11.03,2.2,16.5,3.5,1.09.26,1.89.65,2.67-.38,2.8.41,5.64.64,8.37,1.29,1.92.46,2.47-.1,3.11-1.85,1.84-4.97,3.76-9.93,6.04-14.7,6.8-14.25,15.98-26.86,29.36-35.4,18.9-12.08,39.08-13.09,59.55-3.85,15.27,6.89,25.89,18.8,34.22,32.93,7.2,12.21,11.85,25.37,14.39,39.37,1.3,7.15,2.59,14.28,2.88,21.52.77,19.53-1.64,38.68-8.12,57.17-6.6,18.83-16.03,35.89-32.3,48.29-14.16,10.8-30.2,15.16-47.65,11.73-18.11-3.57-32.24-13.78-43.01-28.77-9.58-13.33-15.99-28.03-19.42-44.02-2.24-10.44-3.43-21.03-3.17-31.74"/>
      <path class="cls-1" d="M298.23,418.57c.34,13.54-3.32,24.5-12.74,33.23-16.01,14.85-33.47,8.03-40.89-9.01-7.09-16.27-4.58-32.52,6.14-46.92,6.5-8.74,16.03-11.63,26.23-9.81,9.51,1.7,15.59,8.5,19.03,17.49,1.97,5.15,2.5,10.52,2.23,15.01ZM259.4,426.41c-.25,3.85,1.07,7.08,3.95,9.62,2.91,2.57,5.58,2.4,8.24-.35,3.19-3.29,3.92-7.31,3.22-11.6-.68-4.16-3.63-6.82-7.13-6.88-5.12-.09-8.27,3.41-8.28,9.21Z"/>
      <path class="cls-2" d="M324.52,292.12c-.27-.27-.79-.53-.36-.94.32-.3.79-.17,1.03.3-.23.21-.45.43-.68.64Z"/>
    </g>
  </g>
</svg>